<svg xmlns="http://www.w3.org/2000/svg" viewBox="0 0 24 24">
  <!-- The shared-note glyph: the same speech bubble the note itself is drawn as
       (rounded card, tail under the left shoulder), so the control and the thing
       it leads to are visibly the same object. Single-fill monochrome so
       theme.NewColoredResource can tint it at the use site. -->
  <path fill="#000000" d="M4.8 3.5h14.4A2.8 2.8 0 0 1 22 6.3v8.1a2.8 2.8 0 0 1-2.8 2.8H10l-3.7 3.6a.7.7 0 0 1-1.2-.5v-3.1h-.3A2.8 2.8 0 0 1 2 14.4V6.3a2.8 2.8 0 0 1 2.8-2.8zm2 4.4a.95.95 0 0 0 0 1.9h10.4a.95.95 0 0 0 0-1.9zm0 3.8a.95.95 0 0 0 0 1.9h6.8a.95.95 0 0 0 0-1.9z"/>
</svg>
